<!-- Generator: Adobe Illustrator 23.0.6, SVG Export Plug-In  -->
<svg version="1.1" xmlns="http://www.w3.org/2000/svg" xmlns:xlink="http://www.w3.org/1999/xlink" x="0px" y="0px"
	 width="234.26px" height="54.44px" viewBox="0 0 234.26 54.44" style="enable-background:new 0 0 234.26 54.44;"
	 xml:space="preserve">
<style type="text/css">
	.st0{fill:#9147ff;}
</style>
<defs>
</defs>
<g>
	<path class="st0" d="M54.44,40.92h9.01V19.34L53.32,9.2l-6.37,6.37l7.5,7.5L54.44,40.92L54.44,40.92z M63.47,45.43H50.36H32.09
		l-7.5-7.5l3.2-3.2l6.2,6.2h12.74L34.16,28.35l3.22-3.22L49.94,37.7V24.95l-6.19-6.19l3.18-3.18L31.34,0L15.95,0v0L0,0l8.97,8.97
		v0.04h0.06l18.57,0l6.58,6.57l-9.62,9.62l-6.57-6.57v-5.11H8.97v8.85l15.58,15.58l-6.34,6.35l10.14,10.15h15.39h28.73v-0.01
		L63.47,45.43z"/>
</g>
<path class="st0" d="M72.48,14.89h14.47l5.42,5.33v23.66l-4.72,4.65H72.48V14.89z M85.3,42.15V21.28h-5.77v20.87H85.3z"/>
<path class="st0" d="M95.18,14.89h16.33v6.4h-9.35v6.49h8.89v6.28h-8.79v8.09h9.49v6.37H95.18V14.89z"/>
<path class="st0" d="M127.45,14.89h7.23l-4.47,33.64h-11.17l-4.56-33.64h7.35l2.79,25.84L127.45,14.89z"/>
<path class="st0" d="M166.85,14.8h20.36v33.73h-20.36V14.8z M173.94,42.13h6.2V21.21h-6.2V42.13z"/>
<path class="st0" d="M203.1,42.13v-4.11h7.09v5.83l-4.66,4.67h-15.21V19.44l5.04-4.64h14.83v12.74h-7.09v-6.32h-5.69v20.92H203.1z"
	/>
<path class="st0" d="M234.26,29.84v18.68h-7.07V36.21h-7.11v12.32h-7.07V14.8h7.07v15.04h0.47l6.62-15.04h7.04l-6.46,15.04H234.26z"
	/>
<polygon class="st0" points="159.82,37.2 162.66,37.2 162.66,30.2 162.66,15.2 152.59,15.2 145.66,15.2 150.49,30.2 143.66,30.2 
	143.66,37.2 143.66,49.2 150.66,49.2 150.66,37.2 152.95,37.2 152.97,37.2 157.15,49.2 164.18,49.2 164.24,49.2 "/>
</svg>
